<?xml version="1.0" encoding="UTF-8" standalone="no"?>
<!-- Generator: Adobe Illustrator 27.5.0, SVG Export Plug-In . SVG Version: 6.00 Build 0)  -->

<svg
   version="1.1"
   id="Layer_1"
   x="0px"
   y="0px"
   viewBox="0 0 1750 1000"
   style="enable-background:new 0 0 1750 1000;"
   xml:space="preserve"
   sodipodi:docname="banner.svg"
   inkscape:version="1.2 (dc2aeda, 2022-05-15)"
   xmlns:inkscape="http://www.inkscape.org/namespaces/inkscape"
   xmlns:sodipodi="http://sodipodi.sourceforge.net/DTD/sodipodi-0.dtd"
   xmlns:xlink="http://www.w3.org/1999/xlink"
   xmlns="http://www.w3.org/2000/svg"
   xmlns:svg="http://www.w3.org/2000/svg"><defs
   id="defs11126" /><sodipodi:namedview
   id="namedview11124"
   pagecolor="#ffffff"
   bordercolor="#000000"
   borderopacity="0.25"
   inkscape:showpageshadow="2"
   inkscape:pageopacity="0.0"
   inkscape:pagecheckerboard="0"
   inkscape:deskcolor="#d1d1d1"
   showgrid="false"
   inkscape:zoom="0.42987889"
   inkscape:cx="467.57356"
   inkscape:cy="626.92076"
   inkscape:window-width="1559"
   inkscape:window-height="731"
   inkscape:window-x="0"
   inkscape:window-y="25"
   inkscape:window-maximized="0"
   inkscape:current-layer="g11113" />
<g
   id="g11121">
	<g
   id="g11113">
		<defs
   id="defs10680">
			<rect
   id="SVGID_1_"
   x="2.555"
   width="1744.891"
   height="1000" />
		</defs>
		<clipPath
   id="SVGID_00000061472237935663397650000018256081105537683118_">
			<use
   xlink:href="#SVGID_1_"
   style="overflow:visible;"
   id="use10682" />
		</clipPath>
		
			<rect
   x="2.555"
   style="clip-path:url(#SVGID_00000061472237935663397650000018256081105537683118_);fill:none;stroke:#808080"
   width="1744.891"
   height="1000"
   clip-path="url(#SVGID_00000061472237935663397650000018256081105537683118_)"
   id="rect10685" />
		<g
   style="opacity:0.3;clip-path:url(#SVGID_00000061472237935663397650000018256081105537683118_);stroke:#808080"
   clip-path="url(#SVGID_00000061472237935663397650000018256081105537683118_)"
   id="g10755">
			<polygon
   style="fill:none;stroke:#808080;stroke-miterlimit:10"
   points="1334.62,776.865 1015.136,808.363 1174.877,719.867         "
   id="polygon10687" />
			<polygon
   style="fill:none;stroke:#808080;stroke-miterlimit:10"
   points="1082.632,596.874 1015.136,808.363 1174.877,719.867         "
   id="polygon10689" />
			<polygon
   style="fill:none;stroke:#808080;stroke-miterlimit:10"
   points="1106.451,733.334 943.118,1071.334 1198.696,808.363         "
   id="polygon10691" />
			<polygon
   style="fill:none;stroke:#808080;stroke-miterlimit:10"
   points="1015.136,808.363 1082.632,596.874 947.639,776.865         "
   id="polygon10693" />
			<polygon
   style="fill:none;stroke:#808080;stroke-miterlimit:10"
   points="1015.136,808.363 917.784,948.668 947.639,776.865         "
   id="polygon10695" />
			<polygon
   style="fill:none;stroke:#808080;stroke-miterlimit:10"
   points="1015.136,808.363 917.784,948.668 1095.007,1036.002         "
   id="polygon10697" />
			<polygon
   style="fill:none;stroke:#808080;stroke-miterlimit:10"
   points="674.918,666.784 1082.632,596.874 947.639,776.865         "
   id="polygon10699" />
			<polygon
   style="fill:none;stroke:#808080;stroke-miterlimit:10"
   points="947.639,776.865 674.918,666.784 919.405,808.363         "
   id="polygon10701" />
			<polygon
   style="fill:none;stroke:#808080;stroke-miterlimit:10"
   points="947.639,776.865 674.918,666.784 790.117,500    "
   id="polygon10703" />
			<polygon
   style="fill:none;stroke:#808080;stroke-miterlimit:10"
   points="582.117,397 674.918,666.784 790.117,500    "
   id="polygon10705" />
			<polyline
   style="fill:none;stroke:#808080;stroke-miterlimit:10"
   points="790.117,500 821.117,582 674.918,666.784    "
   id="polyline10707" />
			<polygon
   style="fill:none;stroke:#808080;stroke-miterlimit:10"
   points="582.117,397 790.117,500 773.117,313    "
   id="polygon10709" />
			<polygon
   style="fill:none;stroke:#808080;stroke-miterlimit:10"
   points="582.117,397 670.117,295 773.117,313    "
   id="polygon10711" />
			<polygon
   style="fill:none;stroke:#808080;stroke-miterlimit:10"
   points="966.459,363 790.117,500 773.117,313    "
   id="polygon10713" />
			<polygon
   style="fill:none;stroke:#808080;stroke-miterlimit:10"
   points="966.459,363 822.117,255 773.117,313    "
   id="polygon10715" />
			<polygon
   style="fill:none;stroke:#808080;stroke-miterlimit:10"
   points="845.232,596.874 790.117,500 773.117,313    "
   id="polygon10717" />
			<polygon
   style="fill:none;stroke:#808080;stroke-miterlimit:10"
   points="947.639,776.865 869.783,973.334 726.45,856    "
   id="polygon10719" />
			<polygon
   style="fill:none;stroke:#808080;stroke-miterlimit:10"
   points="947.639,776.865 925.118,1040.719 847.784,808.363         "
   id="polygon10721" />
			<polygon
   style="fill:none;stroke:#808080;stroke-miterlimit:10"
   points="1174.877,719.867 1334.62,776.865 1082.632,596.874         "
   id="polygon10723" />
			<polygon
   style="fill:none;stroke:#808080;stroke-miterlimit:10"
   points="722.117,422 1119.117,666.784 1106.451,733.334    "
   id="polygon10725" />
			<polygon
   style="fill:none;stroke:#808080;stroke-miterlimit:10"
   points="1170.987,836.875 966.46,817 854.117,573    "
   id="polygon10727" />
			<polyline
   style="fill:none;stroke:#808080;stroke-miterlimit:10"
   points="1095.007,1036.002 1418.117,836.875 996.117,928      1095.007,1032 1198.696,1040.719    "
   id="polyline10729" />
			<polygon
   style="fill:none;stroke:#808080;stroke-miterlimit:10"
   points="1198.696,1040.719 1198.696,808.363 1431.117,1036.002         "
   id="polygon10731" />
			<polygon
   style="fill:none;stroke:#808080;stroke-miterlimit:10"
   points="1292.117,644 947.639,699 1095.007,1032    "
   id="polygon10733" />
			<polyline
   style="fill:none;stroke:#808080;stroke-miterlimit:10"
   points="947.639,699 1012.552,556 1292.117,644    "
   id="polyline10735" />
			<polygon
   style="fill:none;stroke:#808080;stroke-miterlimit:10"
   points="609.117,500 670.117,295 438.117,449    "
   id="polygon10737" />
			<polygon
   style="fill:none;stroke:#808080;stroke-miterlimit:10"
   points="438.117,449 415.117,386 636.117,353    "
   id="polygon10739" />
			<polygon
   style="fill:none;stroke:#808080;stroke-miterlimit:10"
   points="545.117,313 854.117,573 535.421,368.036    "
   id="polygon10741" />
			<polygon
   style="fill:none;stroke:#808080;stroke-miterlimit:10"
   points="677.617,34 545.117,313 773.117,313    "
   id="polygon10743" />
			<polygon
   style="fill:none;stroke:#808080;stroke-miterlimit:10"
   points="476.117,12 469.117,255 677.617,34    "
   id="polygon10745" />
			<polygon
   style="fill:none;stroke:#808080;stroke-miterlimit:10"
   points="476.117,12 665.536,-46 677.617,34    "
   id="polygon10747" />
			<polygon
   style="fill:none;stroke:#808080;stroke-miterlimit:10"
   points="795.117,111 469.117,255 300.117,116    "
   id="polygon10749" />
			<polygon
   style="fill:none;stroke:#808080;stroke-miterlimit:10"
   points="636.117,353 316.117,84 573.367,106    "
   id="polygon10751" />
			<polygon
   style="fill:none;stroke:#808080;stroke-miterlimit:10"
   points="300.117,116 415.117,386 636.117,353    "
   id="polygon10753" />
		</g>
		<g
   style="opacity:0.2;clip-path:url(#SVGID_00000061472237935663397650000018256081105537683118_);stroke:#999999"
   clip-path="url(#SVGID_00000061472237935663397650000018256081105537683118_)"
   id="g10799">
			<polygon
   style="fill:none;stroke:#999999;stroke-miterlimit:10"
   points="1465.12,258.197 1145.635,289.696 1305.378,201.201         "
   id="polygon10757" />
			<polygon
   style="fill:none;stroke:#999999;stroke-miterlimit:10"
   points="1213.132,78.207 1145.635,289.696 1305.378,201.201         "
   id="polygon10759" />
			<polygon
   style="fill:none;stroke:#999999;stroke-miterlimit:10"
   points="1236.951,214.667 1073.617,552.668 1329.196,289.696         "
   id="polygon10761" />
			<polygon
   style="fill:none;stroke:#999999;stroke-miterlimit:10"
   points="1145.635,289.696 1213.132,78.207 1078.139,258.198         "
   id="polygon10763" />
			<polygon
   style="fill:none;stroke:#999999;stroke-miterlimit:10"
   points="1145.635,289.696 1048.284,430.001 1078.139,258.198         "
   id="polygon10765" />
			<polygon
   style="fill:none;stroke:#999999;stroke-miterlimit:10"
   points="1145.635,289.696 1048.284,430.001 1225.506,517.334         "
   id="polygon10767" />
			<polygon
   style="fill:none;stroke:#999999;stroke-miterlimit:10"
   points="805.418,148.117 1213.132,78.207 1078.139,258.198         "
   id="polygon10769" />
			<polygon
   style="fill:none;stroke:#999999;stroke-miterlimit:10"
   points="1078.139,258.198 805.418,148.117 1049.905,289.696         "
   id="polygon10771" />
			<polygon
   style="fill:none;stroke:#999999;stroke-miterlimit:10"
   points="1078.139,258.198 805.418,148.117 920.617,-18.667         "
   id="polygon10773" />
			<polygon
   style="fill:none;stroke:#999999;stroke-miterlimit:10"
   points="712.617,-121.667 805.418,148.117 920.617,-18.667         "
   id="polygon10775" />
			<polyline
   style="fill:none;stroke:#999999;stroke-miterlimit:10"
   points="920.617,-18.667 951.617,63.333 805.418,148.117         "
   id="polyline10777" />
			<polygon
   style="fill:none;stroke:#999999;stroke-miterlimit:10"
   points="975.732,78.207 920.617,-18.667 903.617,-205.667         "
   id="polygon10779" />
			<polygon
   style="fill:none;stroke:#999999;stroke-miterlimit:10"
   points="1078.139,258.198 1000.283,454.667 856.949,337.333         "
   id="polygon10781" />
			<polygon
   style="fill:none;stroke:#999999;stroke-miterlimit:10"
   points="1078.139,258.198 1055.617,522.051 978.284,289.696         "
   id="polygon10783" />
			<polygon
   style="fill:none;stroke:#999999;stroke-miterlimit:10"
   points="1305.378,201.201 1465.12,258.197 1213.132,78.207         "
   id="polygon10785" />
			<polygon
   style="fill:none;stroke:#999999;stroke-miterlimit:10"
   points="852.617,-96.667 1249.617,148.117 1236.951,214.667         "
   id="polygon10787" />
			<polygon
   style="fill:none;stroke:#999999;stroke-miterlimit:10"
   points="1301.486,318.207 1096.959,298.333 984.617,54.333         "
   id="polygon10789" />
			<polyline
   style="fill:none;stroke:#999999;stroke-miterlimit:10"
   points="1225.506,517.334 1548.617,318.207 1126.617,409.333      1225.506,513.333 1329.196,522.051    "
   id="polyline10791" />
			<polygon
   style="fill:none;stroke:#999999;stroke-miterlimit:10"
   points="1329.196,522.051 1329.196,289.696 1561.617,517.334         "
   id="polygon10793" />
			<polygon
   style="fill:none;stroke:#999999;stroke-miterlimit:10"
   points="1422.617,125.333 1078.139,180.333 1225.506,513.333         "
   id="polygon10795" />
			<polyline
   style="fill:none;stroke:#999999;stroke-miterlimit:10"
   points="1078.139,180.333 1143.052,37.333 1422.617,125.333         "
   id="polyline10797" />
		</g>
		<g
   style="opacity:0.2;clip-path:url(#SVGID_00000061472237935663397650000018256081105537683118_);stroke:#808080"
   clip-path="url(#SVGID_00000061472237935663397650000018256081105537683118_)"
   id="g10869">
			<polygon
   style="fill:none;stroke:#808080;stroke-miterlimit:10"
   points="764.772,794.418 445.288,825.916 605.03,737.421    "
   id="polygon10801" />
			<polygon
   style="fill:none;stroke:#808080;stroke-miterlimit:10"
   points="512.785,614.427 445.288,825.916 605.03,737.421    "
   id="polygon10803" />
			<polygon
   style="fill:none;stroke:#808080;stroke-miterlimit:10"
   points="536.604,750.887 373.27,1088.887 628.85,825.916    "
   id="polygon10805" />
			<polygon
   style="fill:none;stroke:#808080;stroke-miterlimit:10"
   points="445.288,825.916 512.785,614.427 377.792,794.418         "
   id="polygon10807" />
			<polygon
   style="fill:none;stroke:#808080;stroke-miterlimit:10"
   points="445.288,825.916 347.938,966.221 377.792,794.418         "
   id="polygon10809" />
			<polygon
   style="fill:none;stroke:#808080;stroke-miterlimit:10"
   points="445.288,825.916 347.938,966.221 525.159,1053.555         "
   id="polygon10811" />
			<polygon
   style="fill:none;stroke:#808080;stroke-miterlimit:10"
   points="105.07,684.337 512.785,614.427 377.792,794.418    "
   id="polygon10813" />
			<polygon
   style="fill:none;stroke:#808080;stroke-miterlimit:10"
   points="377.792,794.418 105.07,684.337 349.559,825.916    "
   id="polygon10815" />
			<polygon
   style="fill:none;stroke:#808080;stroke-miterlimit:10"
   points="377.792,794.418 105.07,684.337 220.27,517.553    "
   id="polygon10817" />
			<polygon
   style="fill:none;stroke:#808080;stroke-miterlimit:10"
   points="12.269,414.553 105.07,684.337 220.27,517.553    "
   id="polygon10819" />
			<polyline
   style="fill:none;stroke:#808080;stroke-miterlimit:10"
   points="220.27,517.553 251.27,599.553 105.07,684.337    "
   id="polyline10821" />
			<polygon
   style="fill:none;stroke:#808080;stroke-miterlimit:10"
   points="12.269,414.553 220.27,517.553 203.27,330.553    "
   id="polygon10823" />
			<polygon
   style="fill:none;stroke:#808080;stroke-miterlimit:10"
   points="12.269,414.553 100.27,312.553 203.27,330.553    "
   id="polygon10825" />
			<polygon
   style="fill:none;stroke:#808080;stroke-miterlimit:10"
   points="396.612,380.553 220.27,517.553 203.27,330.553    "
   id="polygon10827" />
			<polygon
   style="fill:none;stroke:#808080;stroke-miterlimit:10"
   points="396.612,380.553 252.27,272.553 203.27,330.553    "
   id="polygon10829" />
			<polygon
   style="fill:none;stroke:#808080;stroke-miterlimit:10"
   points="275.386,614.427 220.27,517.553 203.27,330.553    "
   id="polygon10831" />
			<polygon
   style="fill:none;stroke:#808080;stroke-miterlimit:10"
   points="377.792,794.418 299.936,990.887 156.602,873.553         "
   id="polygon10833" />
			<polygon
   style="fill:none;stroke:#808080;stroke-miterlimit:10"
   points="377.792,794.418 355.27,1058.271 277.938,825.916         "
   id="polygon10835" />
			<polygon
   style="fill:none;stroke:#808080;stroke-miterlimit:10"
   points="605.03,737.421 764.772,794.418 512.785,614.427    "
   id="polygon10837" />
			<polygon
   style="fill:none;stroke:#808080;stroke-miterlimit:10"
   points="152.27,439.553 549.269,684.337 536.604,750.887    "
   id="polygon10839" />
			<polygon
   style="fill:none;stroke:#808080;stroke-miterlimit:10"
   points="601.14,854.428 396.612,834.553 284.27,590.553    "
   id="polygon10841" />
			<polyline
   style="fill:none;stroke:#808080;stroke-miterlimit:10"
   points="525.159,1053.555 848.269,854.428 426.27,945.553      525.159,1049.553 628.85,1058.271    "
   id="polyline10843" />
			<polygon
   style="fill:none;stroke:#808080;stroke-miterlimit:10"
   points="628.85,1058.271 628.85,825.916 861.269,1053.555         "
   id="polygon10845" />
			<polygon
   style="fill:none;stroke:#808080;stroke-miterlimit:10"
   points="722.269,661.553 377.792,716.553 525.159,1049.553         "
   id="polygon10847" />
			<polyline
   style="fill:none;stroke:#808080;stroke-miterlimit:10"
   points="377.792,716.553 442.705,573.553 722.269,661.553         "
   id="polyline10849" />
			<polygon
   style="fill:none;stroke:#808080;stroke-miterlimit:10"
   points="39.27,517.553 100.27,312.553 -131.73,466.553    "
   id="polygon10851" />
			<polygon
   style="fill:none;stroke:#808080;stroke-miterlimit:10"
   points="-131.73,466.553 -154.73,403.553 66.27,370.553    "
   id="polygon10853" />
			<polygon
   style="fill:none;stroke:#808080;stroke-miterlimit:10"
   points="-24.73,330.553 284.27,590.553 -34.426,385.589    "
   id="polygon10855" />
			<polygon
   style="fill:none;stroke:#808080;stroke-miterlimit:10"
   points="107.77,51.553 -24.73,330.553 203.27,330.553    "
   id="polygon10857" />
			<polygon
   style="fill:none;stroke:#808080;stroke-miterlimit:10"
   points="-93.73,29.553 -100.73,272.553 107.77,51.553    "
   id="polygon10859" />
			<polygon
   style="fill:none;stroke:#808080;stroke-miterlimit:10"
   points="-93.73,29.553 95.689,-28.447 107.77,51.553    "
   id="polygon10861" />
			<polygon
   style="fill:none;stroke:#808080;stroke-miterlimit:10"
   points="225.27,128.553 -100.73,272.553 -269.73,133.553    "
   id="polygon10863" />
			<polygon
   style="fill:none;stroke:#808080;stroke-miterlimit:10"
   points="66.27,370.553 -253.73,101.553 3.52,123.553    "
   id="polygon10865" />
			<polygon
   style="fill:none;stroke:#808080;stroke-miterlimit:10"
   points="-269.73,133.553 -154.73,403.553 66.27,370.553    "
   id="polygon10867" />
		</g>
		<g
   style="clip-path:url(#SVGID_00000061472237935663397650000018256081105537683118_);fill:#808080"
   clip-path="url(#SVGID_00000061472237935663397650000018256081105537683118_)"
   id="g10939">
			<path
   style="fill:#808080"
   d="M720.566,856c0-3.25,2.635-5.883,5.884-5.883c3.249,0,5.883,2.633,5.883,5.883     c0,3.248-2.634,5.883-5.883,5.883C723.201,861.883,720.566,859.248,720.566,856z"
   id="path10871" />
			<path
   style="fill:#808080"
   d="M1007.095,808.363c0-4.441,3.6-8.041,8.04-8.041c4.441,0,8.041,3.6,8.041,8.041     c0,4.439-3.6,8.041-8.041,8.041C1010.694,816.404,1007.095,812.803,1007.095,808.363z"
   id="path10873" />
			<circle
   style="fill:#808080"
   cx="919.867"
   cy="807.613"
   r="6.207"
   id="circle10875" />
			<path
   style="fill:#808080"
   d="M941.432,776.865c0-3.428,2.779-6.207,6.207-6.207c3.428,0,6.207,2.779,6.207,6.207     c0,3.428-2.779,6.207-6.207,6.207C944.211,783.072,941.432,780.293,941.432,776.865z"
   id="path10877" />
			<circle
   style="fill:#808080"
   cx="966.46"
   cy="817"
   r="9.832"
   id="circle10879" />
			<path
   style="fill:#808080"
   d="M863.233,973.334c0-3.25,2.635-5.883,5.884-5.883c3.249,0,5.883,2.633,5.883,5.883     c0,3.248-2.634,5.883-5.883,5.883C865.868,979.217,863.233,976.582,863.233,973.334z"
   id="path10881" />
			<path
   style="fill:#808080"
   d="M1089.867,1034.25c0-2.838,2.302-5.139,5.14-5.139s5.139,2.301,5.139,5.139     s-2.301,5.139-5.139,5.139S1089.867,1037.088,1089.867,1034.25z"
   id="path10883" />
			
				<ellipse
   transform="matrix(0.7071 -0.7071 0.7071 0.7071 -176.5021 1249.1323)"
   style="fill:#808080"
   cx="1419.585"
   cy="837.623"
   rx="7.707"
   ry="7.707"
   id="ellipse10885" />
			<path
   style="fill:#808080"
   d="M941.182,699c0-3.566,2.892-6.457,6.457-6.457c3.566,0,6.457,2.891,6.457,6.457     s-2.891,6.457-6.457,6.457C944.073,705.457,941.182,702.566,941.182,699z"
   id="path10887" />
			<path
   style="fill:#808080"
   d="M1331.16,776.865c0-3.566,2.892-6.457,6.457-6.457s6.457,2.891,6.457,6.457     c0,3.566-2.892,6.457-6.457,6.457S1331.16,780.432,1331.16,776.865z"
   id="path10889" />
			<path
   style="fill:#808080"
   d="M1166.67,720.742c0-4.049,3.283-7.33,7.332-7.33s7.332,3.281,7.332,7.33     c0,4.051-3.283,7.332-7.332,7.332S1166.67,724.793,1166.67,720.742z"
   id="path10891" />
			<circle
   style="fill:#808080"
   cx="1107.002"
   cy="733.334"
   r="7.332"
   id="circle10893" />
			<circle
   style="fill:#808080"
   cx="1012.552"
   cy="556"
   r="7.332"
   id="circle10895" />
			<circle
   style="fill:#808080"
   cx="1121.867"
   cy="587.5"
   r="7.332"
   id="circle10897" />
			<circle
   style="fill:#808080"
   cx="1120.492"
   cy="671.875"
   r="8.707"
   id="circle10899" />
			<circle
   style="fill:#808080"
   cx="1196.196"
   cy="808.363"
   r="8.957"
   id="circle10901" />
			<path
   style="fill:#808080"
   d="M665.711,666.783c0-5.084,4.122-9.205,9.207-9.205c5.084,0,9.207,4.121,9.207,9.205     c0,5.085-4.123,9.207-9.207,9.207C669.833,675.99,665.711,671.868,665.711,666.783z"
   id="path10903" />
			<path
   style="fill:#808080"
   d="M848.802,573c0-5.084,4.122-9.206,9.207-9.206c5.085,0,9.207,4.122,9.207,9.206     s-4.122,9.207-9.207,9.207C852.924,582.207,848.802,578.084,848.802,573z"
   id="path10905" />
			<path
   style="fill:#808080"
   d="M707.41,419.25c0-6.603,5.354-11.956,11.957-11.956c6.602,0,11.957,5.354,11.957,11.956     s-5.354,11.957-11.957,11.957C712.764,431.207,707.41,425.853,707.41,419.25z"
   id="path10907" />
			<path
   style="fill:#808080"
   d="M766.785,313c0-3.496,2.835-6.331,6.332-6.331c3.496,0,6.331,2.835,6.331,6.331     c0,3.497-2.835,6.332-6.331,6.332C769.62,319.332,766.785,316.497,766.785,313z"
   id="path10909" />
			<path
   style="fill:#808080"
   d="M817.536,255c0-2.529,2.052-4.58,4.581-4.58s4.58,2.051,4.58,4.58s-2.051,4.581-4.58,4.581     S817.536,257.529,817.536,255z"
   id="path10911" />
			<path
   style="fill:#808080"
   d="M665.536,294.25c0-2.944,2.388-5.33,5.331-5.33c2.943,0,5.33,2.386,5.33,5.33     c0,2.943-2.387,5.331-5.33,5.331C667.924,299.581,665.536,297.193,665.536,294.25z"
   id="path10913" />
			<path
   style="fill:#808080"
   d="M575.286,396.999c0-3.771,3.06-6.829,6.831-6.829s6.83,3.058,6.83,6.829     c0,3.773-3.059,6.832-6.83,6.832S575.286,400.772,575.286,396.999z"
   id="path10915" />
			<path
   style="fill:#808080"
   d="M538.286,312.999c0-3.771,3.06-6.829,6.831-6.829s6.83,3.058,6.83,6.829     c0,3.773-3.059,6.832-6.83,6.832S538.286,316.772,538.286,312.999z"
   id="path10917" />
			<path
   style="fill:#808080"
   d="M670.786,33.999c0-3.771,3.06-6.829,6.831-6.829s6.83,3.058,6.83,6.829     c0,3.772-3.059,6.832-6.83,6.832S670.786,37.771,670.786,33.999z"
   id="path10919" />
			<path
   style="fill:#808080"
   d="M463.856,9.068c0-5.39,4.371-9.759,9.761-9.759c5.391,0,9.76,4.369,9.76,9.759     c0,5.391-4.369,9.763-9.76,9.763C468.227,18.831,463.856,14.459,463.856,9.068z"
   id="path10921" />
			<path
   style="fill:#808080"
   d="M306.356,83.999c0-5.391,4.371-9.76,9.761-9.76c5.39,0,9.76,4.369,9.76,9.76     s-4.37,9.762-9.76,9.762C310.727,93.761,306.356,89.39,306.356,83.999z"
   id="path10923" />
			<path
   style="fill:#808080"
   d="M560.605,104.498c0-6.218,5.044-11.259,11.262-11.259c6.219,0,11.26,5.041,11.26,11.259     c0,6.22-5.041,11.263-11.26,11.263C565.649,115.761,560.605,110.718,560.605,104.498z"
   id="path10925" />
			<path
   style="fill:#808080"
   d="M788.286,110.999c0-3.771,3.06-6.829,6.831-6.829s6.83,3.058,6.83,6.829     c0,3.772-3.059,6.832-6.83,6.832S788.286,114.771,788.286,110.999z"
   id="path10927" />
			<path
   style="fill:#808080"
   d="M526.523,367.002c0-4.343,3.521-7.863,7.864-7.863c4.343,0,7.864,3.521,7.864,7.863     c0,4.343-3.522,7.865-7.864,7.865C530.045,374.867,526.523,371.345,526.523,367.002z"
   id="path10929" />
			<path
   style="fill:#808080"
   d="M955.742,360.808c0-4.707,3.817-8.523,8.525-8.523c4.707,0,8.523,3.816,8.523,8.523     s-3.816,8.524-8.523,8.524C959.56,369.332,955.742,365.515,955.742,360.808z"
   id="path10931" />
			<path
   style="fill:#808080"
   d="M816.244,582c0-2.69,2.182-4.872,4.873-4.872s4.873,2.182,4.873,4.872     c0,2.691-2.182,4.874-4.873,4.874S816.244,584.691,816.244,582z"
   id="path10933" />
			<path
   style="fill:#808080"
   d="M760.744,614.5c0-2.691,2.182-4.873,4.873-4.873s4.873,2.182,4.873,4.873     s-2.182,4.873-4.873,4.873S760.744,617.191,760.744,614.5z"
   id="path10935" />
			<path
   style="fill:#808080"
   d="M461.661,254.999c0-3.921,3.339-7.099,7.457-7.099s7.455,3.178,7.455,7.099     s-3.338,7.101-7.455,7.101S461.661,258.92,461.661,254.999z"
   id="path10937" />
		</g>
		<g
   style="opacity:0.3;clip-path:url(#SVGID_00000061472237935663397650000018256081105537683118_);fill:#808080"
   clip-path="url(#SVGID_00000061472237935663397650000018256081105537683118_)"
   id="g10999">
			<path
   style="fill:#808080"
   d="M805.445,286.566c-0.53,3.206-3.559,5.374-6.765,4.844c-3.206-0.53-5.374-3.559-4.845-6.764     c0.531-3.206,3.561-5.375,6.766-4.845C803.807,280.332,805.976,283.361,805.445,286.566z"
   id="path10941" />
			<path
   style="fill:#808080"
   d="M514.984,286.799c-0.725,4.381-4.863,7.345-9.244,6.62c-4.382-0.725-7.346-4.864-6.621-9.245     c0.725-4.381,4.863-7.346,9.245-6.621C512.745,278.278,515.709,282.418,514.984,286.799z"
   id="path10943" />
			<path
   style="fill:#808080"
   d="M607.044,302.788c-0.56,3.382-3.755,5.67-7.137,5.11c-3.382-0.56-5.671-3.755-5.11-7.137     c0.559-3.381,3.754-5.67,7.137-5.11C605.315,296.211,607.603,299.406,607.044,302.788z"
   id="path10945" />
			<path
   style="fill:#808080"
   d="M574.626,328.592c-0.56,3.382-3.755,5.67-7.138,5.11c-3.381-0.559-5.67-3.755-5.109-7.137     c0.559-3.382,3.754-5.67,7.137-5.11C572.896,322.014,575.185,325.21,574.626,328.592z"
   id="path10947" />
			<path
   style="fill:#808080"
   d="M566.184,286.515c-0.885,5.358-5.947,8.982-11.305,8.095c-5.356-0.886-8.981-5.947-8.096-11.304     c0.887-5.357,5.949-8.982,11.306-8.096C563.445,276.096,567.07,281.158,566.184,286.515z"
   id="path10949" />
			<path
   style="fill:#808080"
   d="M683.842,147.52c-0.529,3.205-3.559,5.374-6.764,4.844c-3.206-0.53-5.375-3.559-4.845-6.764     c0.53-3.206,3.56-5.375,6.765-4.845C682.203,141.286,684.373,144.315,683.842,147.52z"
   id="path10951" />
			<path
   style="fill:#808080"
   d="M470.189,50.431c-0.463,2.8-3.108,4.694-5.909,4.231c-2.8-0.464-4.694-3.109-4.23-5.909     c0.463-2.799,3.108-4.693,5.908-4.23C468.758,44.985,470.653,47.631,470.189,50.431z"
   id="path10953" />
			<path
   style="fill:#808080"
   d="M120.405,191.865c-0.694,4.198-4.662,7.039-8.861,6.345c-4.199-0.695-7.041-4.662-6.346-8.86     c0.695-4.2,4.663-7.041,8.861-6.347C118.258,183.697,121.1,187.665,120.405,191.865z"
   id="path10955" />
			<path
   style="fill:#808080"
   d="M562.164,405.453c-0.582,3.519-3.907,5.898-7.425,5.316c-3.519-0.582-5.898-3.905-5.316-7.424     c0.582-3.519,3.905-5.898,7.425-5.316C560.365,398.611,562.746,401.935,562.164,405.453z"
   id="path10957" />
			<path
   style="fill:#808080"
   d="M190.124,264.981c-0.582,3.519-3.907,5.898-7.424,5.316c-3.518-0.582-5.898-3.905-5.316-7.424     c0.582-3.518,3.906-5.898,7.424-5.316C188.325,258.14,190.706,261.464,190.124,264.981z"
   id="path10959" />
			<path
   style="fill:#808080"
   d="M343.248,347.199c-0.661,3.994-4.436,6.696-8.431,6.036c-3.994-0.661-6.698-4.436-6.037-8.43     c0.661-3.995,4.436-6.698,8.431-6.037C341.205,339.429,343.908,343.203,343.248,347.199z"
   id="path10961" />
			<path
   style="fill:#808080"
   d="M411.404,345.713c-0.661,3.994-4.435,6.696-8.43,6.036c-3.995-0.661-6.698-4.435-6.037-8.43     c0.661-3.996,4.436-6.698,8.43-6.038C409.361,337.942,412.065,341.717,411.404,345.713z"
   id="path10963" />
			<path
   style="fill:#808080"
   d="M475.645,536.084c-0.661,3.995-4.435,6.697-8.43,6.036c-3.995-0.66-6.698-4.435-6.037-8.429     c0.661-3.996,4.436-6.698,8.43-6.038C473.602,528.315,476.305,532.089,475.645,536.084z"
   id="path10965" />
			<path
   style="fill:#808080"
   d="M372.936,487.165c-0.661,3.994-4.435,6.696-8.43,6.036c-3.995-0.661-6.698-4.436-6.037-8.43     c0.661-3.995,4.436-6.698,8.431-6.037C370.894,479.395,373.598,483.17,372.936,487.165z"
   id="path10967" />
			<path
   style="fill:#808080"
   d="M389.421,404.37c-0.785,4.744-5.268,7.953-10.011,7.168c-4.744-0.784-7.954-5.266-7.169-10.01     c0.785-4.745,5.268-7.955,10.011-7.17C386.996,395.143,390.206,399.626,389.421,404.37z"
   id="path10969" />
			<path
   style="fill:#808080"
   d="M337.255,257.397c-0.808,4.88-5.42,8.182-10.299,7.374c-4.88-0.807-8.183-5.418-7.375-10.298     c0.808-4.881,5.419-8.183,10.299-7.375C334.76,247.904,338.063,252.516,337.255,257.397z"
   id="path10971" />
			<path
   style="fill:#808080"
   d="M828.683,482.199c-0.829,5.016-5.569,8.409-10.586,7.579c-5.017-0.829-8.411-5.569-7.581-10.585     c0.83-5.017,5.57-8.41,10.586-7.581C826.118,472.442,829.512,477.183,828.683,482.199z"
   id="path10973" />
			<path
   style="fill:#808080"
   d="M575.401,587.654c-0.83,5.016-5.57,8.41-10.587,7.58c-5.016-0.83-8.41-5.57-7.58-10.586     c0.83-5.016,5.569-8.41,10.586-7.58C572.837,577.898,576.23,582.638,575.401,587.654z"
   id="path10975" />
			<path
   style="fill:#808080"
   d="M747.141,719.607c-1.077,6.514-7.232,10.922-13.748,9.844c-6.514-1.078-10.922-7.232-9.845-13.746     c1.077-6.516,7.233-10.924,13.749-9.846C743.81,706.938,748.219,713.094,747.141,719.607z"
   id="path10977" />
			<path
   style="fill:#808080"
   d="M671.221,814.742c-0.57,3.449-3.83,5.783-7.28,5.211c-3.449-0.57-5.783-3.83-5.213-7.279     c0.57-3.449,3.83-5.783,7.28-5.213C669.457,808.031,671.791,811.291,671.221,814.742z"
   id="path10979" />
			<path
   style="fill:#808080"
   d="M611.684,863.682c-0.413,2.494-2.771,4.184-5.268,3.77c-2.495-0.412-4.184-2.77-3.771-5.266     c0.413-2.496,2.771-4.185,5.267-3.771C610.407,858.826,612.097,861.185,611.684,863.682z"
   id="path10981" />
			<path
   style="fill:#808080"
   d="M768.052,849.766c-0.48,2.904-3.226,4.869-6.13,4.389c-2.903-0.48-4.869-3.225-4.389-6.129     c0.48-2.904,3.225-4.869,6.129-4.389C766.566,844.117,768.532,846.861,768.052,849.766z"
   id="path10983" />
			<path
   style="fill:#808080"
   d="M873.861,763.125c-0.615,3.721-4.133,6.238-7.854,5.623c-3.722-0.617-6.239-4.133-5.624-7.854     c0.616-3.723,4.132-6.24,7.854-5.625C871.959,755.885,874.477,759.402,873.861,763.125z"
   id="path10985" />
			<path
   style="fill:#808080"
   d="M896.655,852.037c-0.615,3.721-4.133,6.238-7.854,5.623c-3.722-0.615-6.24-4.131-5.624-7.854     c0.615-3.721,4.132-6.24,7.854-5.625C894.752,844.797,897.271,848.315,896.655,852.037z"
   id="path10987" />
			<path
   style="fill:#808080"
   d="M796.045,801.607c-0.709,4.285-4.758,7.184-9.043,6.475c-4.284-0.709-7.184-4.758-6.475-9.041     c0.709-4.285,4.758-7.185,9.042-6.477C793.854,793.273,796.754,797.322,796.045,801.607z"
   id="path10989" />
			<path
   style="fill:#808080"
   d="M492.6,736.734c-0.768,4.644-5.156,7.786-9.801,7.018c-4.645-0.768-7.787-5.156-7.02-9.801     c0.77-4.644,5.158-7.786,9.801-7.018C490.225,727.701,493.367,732.09,492.6,736.734z"
   id="path10991" />
			<path
   style="fill:#808080"
   d="M666.33,541.276c-0.44,2.654-2.948,4.45-5.604,4.012c-2.654-0.44-4.451-2.948-4.012-5.603     c0.438-2.655,2.947-4.452,5.604-4.013C664.973,536.111,666.769,538.62,666.33,541.276z"
   id="path10993" />
			<path
   style="fill:#808080"
   d="M726.391,518.271c-0.439,2.655-2.949,4.451-5.603,4.012c-2.655-0.439-4.451-2.947-4.013-5.603     c0.44-2.655,2.948-4.452,5.604-4.013C725.033,513.106,726.83,515.615,726.391,518.271z"
   id="path10995" />
			<path
   style="fill:#808080"
   d="M962.787,921.766c-0.64,3.869-4.453,6.459-8.516,5.787c-4.061-0.672-6.837-4.353-6.196-8.221     c0.64-3.869,4.452-6.461,8.514-5.789C960.651,914.215,963.427,917.896,962.787,921.766z"
   id="path10997" />
		</g>
		<g
   clip-path="url(#SVGID_00000061472237935663397650000018256081105537683118_)"
   id="g11055"
   style="clip-path:url(#SVGID_00000061472237935663397650000018256081105537683118_);fill:#808080">
			<g
   id="g11005"
   style="fill:#808080">
				<circle
   style="fill:#808080;stroke:#00758E;stroke-width:2.4864;stroke-miterlimit:10"
   cx="917.784"
   cy="948.668"
   r="10.225"
   id="circle11001" />
				<path
   style="fill:#808080"
   d="M917.784,942.172c3.582,0,6.495,2.914,6.495,6.496c0,3.582-2.913,6.494-6.495,6.494      c-3.581,0-6.495-2.912-6.495-6.494C911.289,945.086,914.203,942.172,917.784,942.172z"
   id="path11003" />
			</g>
			<g
   id="g11011"
   style="fill:#808080;stroke:none">
				<circle
   style="fill:#808080;stroke:none;stroke-width:2.4864;stroke-miterlimit:10"
   cx="847.784"
   cy="808.363"
   r="10.225"
   id="circle11007" />
				<path
   style="fill:#808080;stroke:none"
   d="M847.784,801.869c3.582,0,6.495,2.912,6.495,6.494c0,3.582-2.913,6.496-6.495,6.496      c-3.581,0-6.495-2.914-6.495-6.496C841.289,804.781,844.203,801.869,847.784,801.869z"
   id="path11009" />
			</g>
			<g
   id="g11017"
   style="fill:#808080;stroke:none">
				<path
   style="fill:#808080;stroke:none;stroke-width:1.7556;stroke-miterlimit:10"
   d="M852.045,991.871      c0-3.986,3.232-7.219,7.219-7.219c3.987,0,7.22,3.233,7.22,7.219c0,3.988-3.232,7.221-7.22,7.221      C855.277,999.092,852.045,995.859,852.045,991.871z"
   id="path11013" />
				<path
   style="fill:#808080;stroke:none"
   d="M859.264,987.285c2.529,0,4.587,2.059,4.587,4.586c0,2.529-2.058,4.588-4.587,4.588      c-2.528,0-4.586-2.059-4.586-4.588C854.678,989.344,856.735,987.285,859.264,987.285z"
   id="path11015" />
			</g>
			<g
   id="g11023"
   style="fill:#808080;stroke:none">
				<circle
   style="fill:#808080;stroke:none;stroke-width:2.4864;stroke-miterlimit:10"
   cx="1292.117"
   cy="643.225"
   r="10.225"
   id="circle11019" />
				<path
   style="fill:#808080;stroke:none"
   d="M1292.117,636.731c3.581,0,6.494,2.913,6.494,6.494c0,3.582-2.913,6.496-6.494,6.496      c-3.582,0-6.496-2.914-6.496-6.496C1285.621,639.644,1288.535,636.731,1292.117,636.731z"
   id="path11021" />
			</g>
			<g
   id="g11029"
   style="fill:#808080;stroke:none">
				<path
   style="fill:#808080;stroke:none;stroke-width:1.984;stroke-miterlimit:10"
   d="M988.902,591.334      c0-4.506,3.652-8.16,8.158-8.16c4.506,0,8.159,3.654,8.159,8.16c0,4.506-3.653,8.158-8.159,8.158      C992.555,599.492,988.902,595.84,988.902,591.334z"
   id="path11025" />
				<path
   style="fill:#808080;stroke:none"
   d="M997.06,586.15c2.858,0,5.184,2.325,5.184,5.184c0,2.857-2.325,5.182-5.184,5.182      c-2.857,0-5.183-2.324-5.183-5.182C991.878,588.476,994.203,586.15,997.06,586.15z"
   id="path11027" />
			</g>
			<g
   id="g11035"
   style="fill:#808080;stroke:none">
				
					<ellipse
   transform="matrix(0.7071 -0.7071 0.7071 0.7071 -200.2187 607.1254)"
   style="fill:#808080;stroke:none;stroke-width:1.8751;stroke-miterlimit:10"
   cx="632.756"
   cy="545.248"
   id="ellipse11031"
   ry="7.711"
   rx="7.711" />
				<path
   style="fill:#808080;stroke:none"
   d="M632.756,540.35c2.701,0,4.898,2.197,4.898,4.898c0,2.701-2.197,4.898-4.898,4.898      c-2.701,0-4.898-2.197-4.898-4.898C627.857,542.547,630.055,540.35,632.756,540.35z"
   id="path11033" />
			</g>
			<g
   id="g11041"
   style="fill:#808080;stroke:none">
				<path
   style="fill:#808080;stroke:none;stroke-width:2.8757;stroke-miterlimit:10"
   d="M399.624,382.333      c0-6.53,5.295-11.825,11.825-11.825c6.531,0,11.826,5.295,11.826,11.825c0,6.531-5.295,11.826-11.826,11.826      C404.92,394.159,399.624,388.864,399.624,382.333z"
   id="path11037" />
				<path
   style="fill:#808080;stroke:none"
   d="M411.45,374.821c4.143,0,7.513,3.37,7.513,7.512c0,4.143-3.37,7.512-7.513,7.512      c-4.142,0-7.512-3.369-7.512-7.512C403.938,378.191,407.308,374.821,411.45,374.821z"
   id="path11039" />
			</g>
			<g
   id="g11047"
   style="fill:#808080;stroke:none">
				<circle
   style="fill:#808080;stroke:none;stroke-width:2.2645;stroke-miterlimit:10"
   cx="636.117"
   cy="353"
   r="9.313"
   id="circle11043" />
				<path
   style="fill:#808080;stroke:none"
   d="M636.117,347.085c3.262,0,5.915,2.653,5.915,5.915c0,3.263-2.653,5.915-5.915,5.915      s-5.916-2.652-5.916-5.915C630.201,349.738,632.855,347.085,636.117,347.085z"
   id="path11045" />
			</g>
			<g
   id="g11053"
   style="fill:#808080;stroke:none">
				<path
   style="fill:#808080;stroke:none;stroke-width:2.2889;stroke-miterlimit:10"
   d="M290.704,115.761      c0-5.198,4.214-9.412,9.412-9.412c5.198,0,9.413,4.214,9.413,9.412c0,5.198-4.215,9.413-9.413,9.413      C294.918,125.174,290.704,120.959,290.704,115.761z"
   id="path11049" />
				<path
   style="fill:#808080;stroke:none"
   d="M300.116,109.782c3.298,0,5.98,2.682,5.98,5.978c0,3.298-2.682,5.979-5.98,5.979      c-3.297,0-5.979-2.682-5.979-5.979C294.137,112.464,296.819,109.782,300.116,109.782z"
   id="path11051" />
			</g>
		</g>
		<g
   style="display:inline;opacity:0.1;fill:#808080"
   clip-path="url(#SVGID_00000061472237935663397650000018256081105537683118_)"
   id="g11111">
			<path
   style="fill:#808080"
   d="m 1110.228,87.256 c 0.011,5.84 -4.714,10.584 -10.554,10.595 -5.839,0.012 -10.583,-4.711 -10.595,-10.551 -0.012,-5.84 4.713,-10.584 10.552,-10.596 5.84,-0.013 10.584,4.713 10.597,10.552 z"
   id="path11057" />
			<path
   style="fill:#808080"
   d="m 595.431,173.917 c 0.016,7.98 -6.441,14.462 -14.422,14.478 -7.982,0.017 -14.466,-6.44 -14.482,-14.421 -0.017,-7.98 6.442,-14.465 14.423,-14.481 7.981,-0.016 14.464,6.443 14.481,14.424 z"
   id="path11059" />
			<path
   style="fill:#808080"
   d="m 763.36,174.923 c 0.014,6.16 -4.972,11.165 -11.133,11.179 -6.16,0.012 -11.165,-4.973 -11.179,-11.134 -0.012,-6.16 4.974,-11.166 11.134,-11.178 6.162,-0.013 11.167,4.972 11.178,11.133 z"
   id="path11061" />
			<path
   style="fill:#808080"
   d="m 713.559,230.288 c 0.013,6.16 -4.972,11.165 -11.133,11.178 -6.16,0.013 -11.166,-4.973 -11.179,-11.133 -0.012,-6.161 4.973,-11.166 11.134,-11.179 6.16,-0.012 11.166,4.974 11.178,11.134 z"
   id="path11063" />
			<path
   style="fill:#808080"
   d="m 686.102,158.21 c 0.019,9.759 -7.878,17.685 -17.636,17.706 -9.759,0.02 -17.688,-7.875 -17.707,-17.634 -0.02,-9.759 7.877,-17.688 17.636,-17.707 9.759,-0.02 17.687,7.877 17.707,17.635 z"
   id="path11065" />
			<path
   style="fill:#808080"
   d="m 445.842,-231.764 c 0.009,5.1 -4.118,9.243 -9.218,9.254 -5.101,0.011 -9.244,-4.116 -9.255,-9.217 -0.01,-5.1 4.117,-9.244 9.217,-9.255 5.1,-0.01 9.246,4.119 9.256,9.218 z"
   id="path11067" />
			<path
   style="fill:#808080"
   d="m 714.292,370.233 c 0.013,6.407 -5.174,11.613 -11.581,11.627 -6.409,0.013 -11.616,-5.172 -11.629,-11.581 -0.013,-6.409 5.172,-11.615 11.582,-11.629 6.408,-0.011 11.615,5.173 11.628,11.583 z"
   id="path11069" />
			<path
   style="fill:#808080"
   d="m 13.11,231.707 c 0.012,6.41 -5.174,11.616 -11.583,11.628 -6.408,0.014 -11.615,-5.172 -11.628,-11.58 -0.013,-6.409 5.173,-11.616 11.582,-11.629 6.408,-0.014 11.616,5.173 11.629,11.581 z"
   id="path11071" />
			<path
   style="fill:#808080"
   d="m 308.947,331.976 c 0.015,7.277 -5.875,13.189 -13.151,13.203 -7.277,0.015 -13.19,-5.872 -13.204,-13.149 -0.015,-7.278 5.874,-13.19 13.151,-13.205 7.277,-0.015 13.189,5.872 13.204,13.151 z"
   id="path11073" />
			<path
   style="fill:#808080"
   d="m 429.319,309.103 c 0.014,7.277 -5.875,13.188 -13.151,13.203 -7.277,0.015 -13.191,-5.873 -13.204,-13.149 -0.015,-7.278 5.874,-13.191 13.15,-13.205 7.277,-0.016 13.19,5.872 13.205,13.151 z"
   id="path11075" />
			<path
   style="fill:#808080"
   d="m 599.719,627.477 c 0.015,7.277 -5.875,13.188 -13.151,13.202 -7.277,0.016 -13.19,-5.873 -13.204,-13.148 -0.016,-7.279 5.875,-13.192 13.151,-13.205 7.276,-0.016 13.188,5.873 13.204,13.151 z"
   id="path11077" />
			<path
   style="fill:#808080"
   d="m 403.135,571.262 c 0.015,7.277 -5.875,13.188 -13.151,13.203 -7.277,0.014 -13.189,-5.873 -13.204,-13.15 -0.015,-7.279 5.874,-13.19 13.15,-13.205 7.277,-0.015 13.19,5.873 13.205,13.152 z"
   id="path11079" />
			<path
   style="fill:#808080"
   d="m 287.309,442.97 c 0.018,8.643 -6.975,15.661 -15.616,15.679 -8.642,0.018 -15.664,-6.973 -15.682,-15.614 -0.017,-8.644 6.977,-15.664 15.617,-15.682 8.643,-0.018 15.664,6.974 15.681,15.617 z"
   id="path11081" />
			<path
   style="fill:#808080"
   d="m 271.66,174.572 c 0.018,8.891 -7.177,16.111 -16.066,16.13 -8.89,0.019 -16.112,-7.174 -16.13,-16.063 -0.019,-8.893 7.174,-16.113 16.065,-16.132 8.889,-0.018 16.113,7.175 16.131,16.065 z"
   id="path11083" />
			<path
   style="fill:#808080"
   d="m 1209.508,427.131 c 0.019,9.138 -7.376,16.561 -16.515,16.579 -9.138,0.018 -16.563,-7.375 -16.581,-16.513 -0.018,-9.138 7.376,-16.563 16.515,-16.581 9.137,-0.018 16.562,7.376 16.581,16.515 z"
   id="path11085" />
			<path
   style="fill:#808080"
   d="m 652.665,761.977 c 0.019,9.137 -7.376,16.56 -16.514,16.578 -9.139,0.02 -16.563,-7.375 -16.581,-16.512 -0.019,-9.139 7.376,-16.563 16.514,-16.581 9.139,-0.019 16.562,7.374 16.581,16.515 z"
   id="path11087" />
			<path
   style="fill:#808080"
   d="m 1135.465,872.17 c 0.023,11.865 -9.58,21.506 -21.447,21.529 -11.867,0.025 -21.51,-9.576 -21.533,-21.443 -0.024,-11.867 9.579,-21.51 21.446,-21.533 11.867,-0.024 21.509,9.58 21.534,21.447 z"
   id="path11089" />
			<path
   style="fill:#808080"
   d="m 1373.008,911.678 c 0.014,6.781 -5.473,12.287 -12.252,12.301 -6.779,0.014 -12.287,-5.471 -12.301,-12.25 -0.015,-6.781 5.472,-12.289 12.251,-12.303 6.779,-0.016 12.287,5.472 12.302,12.252 z"
   id="path11091" />
			<path
   style="fill:#808080"
   d="m 1202.69,1564.438 c 0.014,6.779 -5.474,12.285 -12.253,12.301 -6.779,0.012 -12.287,-5.471 -12.3,-12.25 -0.014,-6.781 5.471,-12.291 12.25,-12.303 6.78,-0.016 12.29,5.472 12.303,12.252 z"
   id="path11093" />
			<path
   style="fill:#808080"
   d="m 1574.691,1608.49 c 0.02,9.688 -7.821,17.559 -17.508,17.576 -9.688,0.02 -17.558,-7.816 -17.577,-17.504 -0.021,-9.688 7.818,-17.563 17.507,-17.58 9.687,-0.019 17.559,7.821 17.578,17.508 z"
   id="path11095" />
			<path
   style="fill:#808080"
   d="m 1857.49,1473.248 c 0.02,9.688 -7.821,17.555 -17.508,17.576 -9.688,0.02 -17.558,-7.818 -17.577,-17.506 -0.021,-9.688 7.818,-17.561 17.506,-17.58 9.687,-0.019 17.56,7.821 17.579,17.51 z"
   id="path11097" />
			<path
   style="fill:#808080"
   d="m 1400.457,1437.33 c 0.023,11.176 -9.023,20.254 -20.198,20.275 -11.176,0.023 -20.256,-9.018 -20.279,-20.193 -0.021,-11.178 9.021,-20.26 20.198,-20.283 11.175,-0.024 20.258,9.023 20.279,20.201 z"
   id="path11099" />
			<path
   style="fill:#808080"
   d="m 991.229,1426.477 c 0.014,6.777 -5.473,12.285 -12.252,12.299 -6.779,0.014 -12.287,-5.471 -12.301,-12.25 -0.014,-6.781 5.472,-12.289 12.251,-12.303 6.779,-0.014 12.289,5.472 12.302,12.254 z"
   id="path11101" />
			<path
   style="fill:#808080"
   d="m 1460.759,965.414 c 0.016,7.807 -6.303,14.146 -14.107,14.162 -7.806,0.016 -14.146,-6.299 -14.161,-14.105 -0.017,-7.805 6.299,-14.146 14.104,-14.164 7.804,-0.016 14.147,6.302 14.164,14.107 z"
   id="path11103" />
			<path
   style="fill:#808080"
   d="m 689.353,978.111 c 0.017,8.459 -6.828,15.332 -15.29,15.35 -8.459,0.016 -15.333,-6.828 -15.351,-15.289 -0.017,-8.459 6.829,-15.334 15.289,-15.35 8.461,-0.017 15.336,6.828 15.352,15.289 z"
   id="path11105" />
			<path
   style="fill:#808080"
   d="m 939.266,580.059 c 0.011,4.836 -3.903,8.766 -8.74,8.775 -4.837,0.01 -8.767,-3.904 -8.775,-8.74 -0.011,-4.838 3.903,-8.768 8.74,-8.777 4.835,-0.009 8.766,3.905 8.775,8.742 z"
   id="path11107" />
			<path
   style="display:inline;fill:#808080"
   d="m 1038.896,521.445 c 0.01,4.836 -3.904,8.765 -8.739,8.774 -4.838,0.01 -8.768,-3.902 -8.778,-8.739 -0.01,-4.837 3.905,-8.767 8.742,-8.776 4.836,-0.011 8.766,3.903 8.775,8.741 z"
   id="path11109" />
		</g>
	</g>
	
</g>
</svg>
