<?xml version="1.0" encoding="UTF-8" standalone="no"?>
<!-- Created with Inkscape (http://www.inkscape.org/) -->

<svg
   width="232.26903mm"
   height="56.215141mm"
   viewBox="0 0 232.26903 56.215141"
   version="1.1"
   id="svg5325"
   sodipodi:docname="logo_dark.svg"
   inkscape:version="1.2 (dc2aeda, 2022-05-15)"
   xmlns:inkscape="http://www.inkscape.org/namespaces/inkscape"
   xmlns:sodipodi="http://sodipodi.sourceforge.net/DTD/sodipodi-0.dtd"
   xmlns="http://www.w3.org/2000/svg"
   xmlns:svg="http://www.w3.org/2000/svg">
  <sodipodi:namedview
     id="namedview5327"
     pagecolor="#ffffff"
     bordercolor="#000000"
     borderopacity="0.25"
     inkscape:showpageshadow="2"
     inkscape:pageopacity="0.0"
     inkscape:pagecheckerboard="0"
     inkscape:deskcolor="#d1d1d1"
     inkscape:document-units="mm"
     showgrid="false"
     inkscape:zoom="1.1772522"
     inkscape:cx="330.43047"
     inkscape:cy="144.40406"
     inkscape:window-width="1752"
     inkscape:window-height="456"
     inkscape:window-x="0"
     inkscape:window-y="25"
     inkscape:window-maximized="0"
     inkscape:current-layer="g1480" />
  <defs
     id="defs5322">
    <clipPath
       clipPathUnits="userSpaceOnUse"
       id="clipPath1881">
      <path
         d="M 0,595.276 H 841.89 V 0 H 0 Z"
         id="path1879" />
    </clipPath>
  </defs>
  <g
     inkscape:label="Layer 1"
     inkscape:groupmode="layer"
     id="layer1"
     transform="translate(-12.229891,-130.60743)">
    <g
       id="g8838"
       inkscape:export-filename="suprema-ai-developers-logo.svg"
       inkscape:export-xdpi="96"
       inkscape:export-ydpi="96">
      <g
         id="g1479"
         inkscape:export-filename="suprema_ai_developers_logo.svg"
         inkscape:export-xdpi="96"
         inkscape:export-ydpi="96">
        <g
           id="g1480">
          <g
             id="g1973"
             transform="translate(-241.35405,33.101252)">
            <g
               id="g1869"
               transform="matrix(0.35277776,0,0,-0.35277778,467.0781,113.61801)"
               style="fill:#ffffff">
              <path
                 d="M 0,0 -11.403,27.535 -22.809,0 Z m 5.241,-12.638 h -33.392 l -6.37,-15.411 h -17.054 l 32.054,71.92 h 16.44 l 32.158,-71.92 H 11.61 Z"
                 style="fill:#ffffff;fill-opacity:1;fill-rule:nonzero;stroke:none"
                 id="path1871" />
            </g>
            <path
               d="m 479.98098,98.141371 h 5.87199 v 25.371779 h -5.87199 z"
               style="fill:#ffffff;fill-opacity:1;fill-rule:nonzero;stroke:none;stroke-width:0.352778"
               id="path1873" />
            <g
               id="g1875"
               transform="matrix(0.35277776,0,0,-0.35277778,220,210.00015)"
               style="fill:#ffffff">
              <g
                 id="g1877"
                 clip-path="url(#clipPath1881)"
                 style="fill:#ffffff">
                <g
                   id="g1883"
                   transform="translate(214.5947,315.511)"
                   style="fill:#ffffff">
                  <path
                     d="m 0,0 0.063,-43.719 c 0.003,-2.86 0.008,-7.18 -2.368,-9.566 -1.652,-1.666 -4.337,-2.498 -7.978,-2.503 l -11.669,-0.013 c -1.958,-0.002 -5.242,-0.006 -7.603,2.331 -1.951,1.947 -2.946,5.208 -2.952,9.682 l -0.05,43.751 -14.584,-0.016 0.05,-43.963 c 0.005,-4.389 1.071,-26.273 21.709,-26.25 l 19.219,0.022 c 7.81,0.01 20.919,3.442 20.893,26.299 L 14.68,0.017 Z"
                     style="fill:#ffffff;fill-opacity:1;fill-rule:nonzero;stroke:none"
                     id="path1885" />
                </g>
                <g
                   id="g1887"
                   transform="translate(133.3916,289.7238)"
                   style="fill:#ffffff">
                  <path
                     d="m 0,0 -15.933,1.979 c -3.843,0.626 -7.25,1.512 -7.254,5.602 -0.007,6.462 1.846,8.214 14.876,8.229 l 3.257,0.004 C 2.613,15.44 9.732,14.76 18.451,12.372 l 1.059,-0.293 -0.011,10.06 -0.096,0.174 c -1.311,2.582 -13.292,6.683 -25.007,6.669 l -3.24,-0.003 C -28.61,28.956 -38.21,21.613 -38.193,6.525 c 0.016,-14.485 12.176,-17.593 23.571,-19.361 l 7.084,-0.989 c 5.175,-0.652 8.174,-1.067 10.004,-1.801 3.067,-1.231 4.768,-2.27 4.709,-7.104 -0.099,-8.031 -5.445,-8.906 -17.027,-8.918 l -3.25,-0.004 c -6.815,-0.008 -15.078,1.913 -23.897,5.554 l -1.158,0.49 0.011,-9.847 c 0.005,-3.996 12.051,-9.039 25.585,-9.024 l 2.975,0.004 c 22.074,0.025 32.342,7.468 32.324,23.44 C 22.72,-5.583 11.233,-1.73 0,0"
                     style="fill:#ffffff;fill-opacity:1;fill-rule:nonzero;stroke:none"
                     id="path1889" />
                </g>
                <g
                   id="g1891"
                   transform="translate(279.2861,318.7971)"
                   style="fill:#ffffff">
                  <path
                     d="m 0,0 -2.145,-0.002 c -26.679,-0.031 -36.585,-10.08 -36.554,-37.093 l 0.04,-36.457 15.578,0.018 -0.04,36.4 c -0.023,20.487 4.554,23.944 18.303,23.96 l 3.497,0.004 c 13.257,0.015 15.699,-3.846 15.699,-13.305 0,-5.85 -1.904,-12.606 -7.314,-12.612 l -24.548,0.421 0.011,-10.707 0.701,-0.112 c 4.939,-0.82 13.682,-1.424 20.336,-1.424 22.931,0 26.666,12.6 26.655,23.147 C 30.199,-10.357 18.899,0.021 0,0"
                     style="fill:#ffffff;fill-opacity:1;fill-rule:nonzero;stroke:none"
                     id="path1893" />
                </g>
                <g
                   id="g1895"
                   transform="translate(361.9351,317.9055)"
                   style="fill:#ffffff">
                  <path
                     d="m 0,0 c -4.048,0.641 -13.515,0.98 -18.318,0.975 -8.549,-0.01 -22.876,-3.495 -22.85,-26.759 l 0.052,-46.876 15.271,0.017 -0.051,45.874 c -0.014,12.348 2.237,13.612 11.894,13.623 L 0,-13.13 Z"
                     style="fill:#ffffff;fill-opacity:1;fill-rule:nonzero;stroke:none"
                     id="path1897" />
                </g>
                <g
                   id="g1899"
                   transform="translate(409.1309,258.7092)"
                   style="fill:#ffffff">
                  <path
                     d="m 0,0 -2.98,-0.003 c -12.95,-0.015 -20.811,1.517 -20.834,22.919 -0.024,20.432 4.566,23.887 18.379,23.903 l 3.491,0.004 c 12.905,0.014 15.693,-2.09 15.704,-11.86 0.006,-4.872 -2.177,-6.956 -7.311,-6.962 l -24.566,-0.028 0.012,-10.229 0.695,-0.117 c 4.875,-0.833 13.637,-1.444 20.375,-1.437 9.952,0.011 26.621,1.921 26.621,21.019 0,19.575 -16.425,22.8 -30.182,22.784 L -2.762,59.991 C -29.488,59.96 -39.42,49.912 -39.389,22.898 c 0.029,-25.851 10.191,-36.39 35.084,-36.362 l 1.892,0.002 c 15.767,0.019 29.097,4.184 29.091,9.086 L 26.669,4.147 25.617,3.863 C 16.453,1.425 9.326,0.011 0,0"
                     style="fill:#ffffff;fill-opacity:1;fill-rule:nonzero;stroke:none"
                     id="path1901" />
                </g>
                <g
                   id="g1903"
                   transform="translate(541.7461,291.6574)"
                   style="fill:#ffffff">
                  <path
                     d="m 0,0 c -0.015,12.703 -4.809,19.224 -9.979,22.571 l 0.011,10e-4 c 0,0 -5.616,4.226 -15.62,4.226 -4.87,0.03 -8.706,-0.672 -11.683,-1.63 -4.131,-1.15 -6.699,-3.155 -7.995,-4.427 -0.446,-0.428 -0.663,-0.701 -0.663,-0.701 0,0 -5.301,6.851 -20.342,6.758 -6.571,0 -11.234,-1.82 -13.67,-3.071 -0.086,-0.043 -0.168,-0.087 -0.253,-0.13 -0.136,-0.072 -0.255,-0.139 -0.375,-0.205 C -90.417,18.057 -91.711,5.92 -91.705,-0.104 l 0.052,-46.308 13.885,0.016 -0.05,46.308 c -0.008,6.979 1.422,13.438 11.867,13.45 10.818,0.013 12.939,-4.903 12.948,-13.422 l 0.052,-46.308 14.29,0.016 -0.051,46.308 c -0.011,9.265 3.796,13.58 11.971,13.589 8.841,0.01 12.793,-4.173 12.804,-13.561 l 0.051,-46.307 13.937,0.015 z"
                     style="fill:#ffffff;fill-opacity:1;fill-rule:nonzero;stroke:none"
                     id="path1905" />
                </g>
                <g
                   id="g1907"
                   transform="translate(582.707,305.2385)"
                   style="fill:#ffffff">
                  <path
                     d="M 0,0 2.98,0.003 C 15.931,0.018 23.791,-1.514 23.815,-22.915 23.838,-43.348 19.248,-46.803 5.436,-46.818 l -3.492,-0.004 c -12.905,-0.015 -15.693,2.09 -15.704,11.859 -0.006,4.873 2.177,6.957 7.312,6.963 l 24.565,0.027 -0.012,10.229 -0.694,0.117 c -4.876,0.833 -13.637,1.444 -20.376,1.437 -9.951,-0.011 -26.621,-1.921 -26.621,-21.019 0,-19.575 16.426,-22.8 30.183,-22.784 l 2.166,0.003 C 29.488,-59.96 39.42,-49.911 39.39,-22.897 39.36,2.954 29.198,13.492 4.306,13.464 L 2.413,13.462 C -13.354,13.444 -26.684,9.279 -26.678,4.376 l 0.01,-8.523 1.052,0.284 C -16.452,-1.425 -9.325,-0.011 0,0"
                     style="fill:#ffffff;fill-opacity:1;fill-rule:nonzero;stroke:none"
                     id="path1909" />
                </g>
              </g>
            </g>
          </g>
          <g
             aria-label="developers"
             id="text2029"
             style="font-weight:500;font-size:22.5778px;font-family:Montserrat;-inkscape-font-specification:'Montserrat Medium';text-align:end;text-anchor:end;fill:#ffffff;stroke:#ffffff;stroke-width:0;stroke-linejoin:round;stroke-miterlimit:5.1;paint-order:markers fill stroke;fill-opacity:1">
            <path
               d="m 126.07259,182.57794 q -1.73849,0 -3.11574,-0.76764 -1.35467,-0.76765 -2.14489,-2.1449 -0.79022,-1.37724 -0.79022,-3.20604 0,-1.8288 0.79022,-3.18347 0.79022,-1.37725 2.14489,-2.14489 1.37725,-0.76765 3.11574,-0.76765 1.51271,0 2.73191,0.67733 1.2192,0.67734 1.94169,2.03201 0.74507,1.35467 0.74507,3.38667 0,2.032 -0.72249,3.38667 -0.69991,1.35467 -1.91911,2.05458 -1.21921,0.67733 -2.77707,0.67733 z m 0.18062,-1.89653 q 1.12889,0 2.032,-0.51929 0.92569,-0.51929 1.44498,-1.46756 0.54187,-0.97085 0.54187,-2.2352 0,-1.28694 -0.54187,-2.21263 -0.51929,-0.94826 -1.44498,-1.46755 -0.90311,-0.51929 -2.032,-0.51929 -1.15147,0 -2.05458,0.51929 -0.90311,0.51929 -1.44498,1.46755 -0.54187,0.92569 -0.54187,2.21263 0,1.26435 0.54187,2.2352 0.54187,0.94827 1.44498,1.46756 0.90311,0.51929 2.05458,0.51929 z m 4.08658,1.76106 v -3.22862 l 0.13547,-2.77707 -0.22578,-2.77707 v -7.96996 h 2.16747 v 16.75272 z"
               id="path2085"
               style="fill:#ffffff;fill-opacity:1" />
            <path
               d="m 141.85445,182.57794 q -1.91911,0 -3.38667,-0.79022 -1.44498,-0.79022 -2.25778,-2.16747 -0.79022,-1.37725 -0.79022,-3.16089 0,-1.78365 0.76764,-3.16089 0.79023,-1.37725 2.14489,-2.1449 1.37725,-0.79022 3.09316,-0.79022 1.73849,0 3.07058,0.76765 1.33209,0.76764 2.07716,2.16747 0.76765,1.37724 0.76765,3.22862 0,0.13547 -0.0226,0.31609 0,0.18062 -0.0226,0.33867 h -10.18259 v -1.55787 h 9.0537 l -0.88053,0.54187 q 0.0226,-1.15147 -0.47414,-2.05458 -0.49671,-0.90312 -1.37724,-1.39983 -0.85796,-0.51929 -2.00943,-0.51929 -1.12889,0 -2.00942,0.51929 -0.88054,0.49671 -1.37725,1.4224 -0.49671,0.90312 -0.49671,2.07716 v 0.36125 q 0,1.19662 0.54187,2.14489 0.56444,0.92569 1.55787,1.44498 0.99342,0.51929 2.28035,0.51929 1.06116,0 1.91912,-0.36125 0.88053,-0.36124 1.53529,-1.08373 l 1.19662,1.39982 q -0.8128,0.94827 -2.032,1.44498 -1.19663,0.49671 -2.68676,0.49671 z"
               id="path2087"
               style="fill:#ffffff;fill-opacity:1" />
            <path
               d="m 153.25622,182.44247 -5.23805,-11.96623 h 2.25778 l 4.65103,10.83734 h -1.08373 l 4.74133,-10.83734 h 2.12232 l -5.23805,11.96623 z"
               id="path2089"
               style="fill:#ffffff;fill-opacity:1" />
            <path
               d="m 167.72852,182.57794 q -1.91911,0 -3.38667,-0.79022 -1.44498,-0.79022 -2.25778,-2.16747 -0.79022,-1.37725 -0.79022,-3.16089 0,-1.78365 0.76764,-3.16089 0.79023,-1.37725 2.1449,-2.1449 1.37724,-0.79022 3.09315,-0.79022 1.73849,0 3.07058,0.76765 1.3321,0.76764 2.07716,2.16747 0.76765,1.37724 0.76765,3.22862 0,0.13547 -0.0226,0.31609 0,0.18062 -0.0226,0.33867 h -10.18259 v -1.55787 h 9.0537 l -0.88053,0.54187 q 0.0226,-1.15147 -0.47414,-2.05458 -0.49671,-0.90312 -1.37724,-1.39983 -0.85796,-0.51929 -2.00943,-0.51929 -1.12889,0 -2.00942,0.51929 -0.88053,0.49671 -1.37725,1.4224 -0.49671,0.90312 -0.49671,2.07716 v 0.36125 q 0,1.19662 0.54187,2.14489 0.56444,0.92569 1.55787,1.44498 0.99342,0.51929 2.28036,0.51929 1.06115,0 1.91911,-0.36125 0.88053,-0.36124 1.53529,-1.08373 l 1.19662,1.39982 q -0.8128,0.94827 -2.032,1.44498 -1.19662,0.49671 -2.68676,0.49671 z"
               id="path2091"
               style="fill:#ffffff;fill-opacity:1" />
            <path
               d="m 176.21776,182.44247 v -16.75272 h 2.16747 v 16.75272 z"
               id="path2093"
               style="fill:#ffffff;fill-opacity:1" />
            <path
               d="m 187.64212,182.57794 q -1.80623,0 -3.20605,-0.79022 -1.39982,-0.79022 -2.21263,-2.16747 -0.8128,-1.39982 -0.8128,-3.16089 0,-1.78365 0.8128,-3.16089 0.81281,-1.37725 2.21263,-2.1449 1.39982,-0.79022 3.20605,-0.79022 1.78364,0 3.18347,0.79022 1.4224,0.76765 2.21262,2.1449 0.8128,1.35466 0.8128,3.16089 0,1.78364 -0.8128,3.16089 -0.79022,1.37725 -2.21262,2.16747 -1.39983,0.79022 -3.18347,0.79022 z m 0,-1.89653 q 1.15146,0 2.05458,-0.51929 0.92569,-0.51929 1.44498,-1.46756 0.51929,-0.97085 0.51929,-2.2352 0,-1.28694 -0.51929,-2.21263 -0.51929,-0.94826 -1.44498,-1.46755 -0.90312,-0.51929 -2.05458,-0.51929 -1.15147,0 -2.05458,0.51929 -0.90312,0.51929 -1.44498,1.46755 -0.54187,0.92569 -0.54187,2.21263 0,1.26435 0.54187,2.2352 0.54186,0.94827 1.44498,1.46756 0.90311,0.51929 2.05458,0.51929 z"
               id="path2095"
               style="fill:#ffffff;fill-opacity:1" />
            <path
               d="m 203.19818,182.57794 q -1.49014,0 -2.73192,-0.67733 -1.2192,-0.69991 -1.96426,-2.05458 -0.72249,-1.35467 -0.72249,-3.38667 0,-2.032 0.69991,-3.38667 0.72249,-1.35467 1.94169,-2.03201 1.24178,-0.67733 2.77707,-0.67733 1.76107,0 3.11573,0.76765 1.35467,0.76764 2.1449,2.14489 0.79022,1.35467 0.79022,3.18347 0,1.8288 -0.79022,3.20604 -0.79023,1.37725 -2.1449,2.1449 -1.35466,0.76764 -3.11573,0.76764 z m -6.34436,4.24463 v -16.34633 h 2.07715 v 3.22863 l -0.13546,2.77706 0.22578,2.77707 v 7.56357 z m 6.16374,-6.14116 q 1.15146,0 2.05458,-0.51929 0.92569,-0.51929 1.44498,-1.46756 0.54186,-0.97085 0.54186,-2.2352 0,-1.28694 -0.54186,-2.21263 -0.51929,-0.94826 -1.44498,-1.46755 -0.90312,-0.51929 -2.05458,-0.51929 -1.12889,0 -2.05458,0.51929 -0.90312,0.51929 -1.44498,1.46755 -0.51929,0.92569 -0.51929,2.21263 0,1.26435 0.51929,2.2352 0.54186,0.94827 1.44498,1.46756 0.92569,0.51929 2.05458,0.51929 z"
               id="path2097"
               style="fill:#ffffff;fill-opacity:1" />
            <path
               d="m 217.58023,182.57794 q -1.91912,0 -3.38667,-0.79022 -1.44498,-0.79022 -2.25778,-2.16747 -0.79023,-1.37725 -0.79023,-3.16089 0,-1.78365 0.76765,-3.16089 0.79022,-1.37725 2.14489,-2.1449 1.37724,-0.79022 3.09316,-0.79022 1.73849,0 3.07058,0.76765 1.33209,0.76764 2.07716,2.16747 0.76764,1.37724 0.76764,3.22862 0,0.13547 -0.0226,0.31609 0,0.18062 -0.0226,0.33867 h -10.18259 v -1.55787 h 9.0537 l -0.88054,0.54187 q 0.0226,-1.15147 -0.47413,-2.05458 -0.49671,-0.90312 -1.37725,-1.39983 -0.85795,-0.51929 -2.00942,-0.51929 -1.12889,0 -2.00943,0.51929 -0.88053,0.49671 -1.37724,1.4224 -0.49671,0.90312 -0.49671,2.07716 v 0.36125 q 0,1.19662 0.54186,2.14489 0.56445,0.92569 1.55787,1.44498 0.99342,0.51929 2.28036,0.51929 1.06116,0 1.91911,-0.36125 0.88054,-0.36124 1.53529,-1.08373 l 1.19663,1.39982 q -0.8128,0.94827 -2.03201,1.44498 -1.19662,0.49671 -2.68675,0.49671 z"
               id="path2099"
               style="fill:#ffffff;fill-opacity:1" />
            <path
               d="m 226.06947,182.44247 v -11.96623 h 2.07716 v 3.2512 l -0.2032,-0.8128 q 0.49671,-1.24178 1.67075,-1.89653 1.17405,-0.65476 2.88996,-0.65476 v 2.09974 q -0.13546,-0.0226 -0.27093,-0.0226 -0.11289,0 -0.22578,0 -1.73849,0 -2.75449,1.03858 -1.016,1.03858 -1.016,3.00284 v 5.96054 z"
               id="path2101"
               style="fill:#ffffff;fill-opacity:1" />
            <path
               d="m 238.73558,182.57794 q -1.49014,0 -2.8448,-0.4064 -1.3321,-0.4064 -2.09974,-0.99342 l 0.90311,-1.71592 q 0.76765,0.51929 1.89654,0.88054 1.12889,0.36124 2.30293,0.36124 1.51272,0 2.16747,-0.42897 0.67734,-0.42898 0.67734,-1.19663 0,-0.56444 -0.4064,-0.88053 -0.40641,-0.31609 -1.08374,-0.47414 -0.65476,-0.15804 -1.46756,-0.27093 -0.8128,-0.13547 -1.6256,-0.31609 -0.8128,-0.2032 -1.49013,-0.54187 -0.67734,-0.36124 -1.08374,-0.97084 -0.4064,-0.63218 -0.4064,-1.67076 0,-1.08373 0.6096,-1.89653 0.6096,-0.8128 1.71592,-1.24178 1.12889,-0.45156 2.66418,-0.45156 1.17404,0 2.37067,0.29351 1.2192,0.27094 1.98684,0.79023 l -0.92569,1.71591 q -0.8128,-0.54187 -1.69333,-0.74507 -0.88054,-0.2032 -1.76107,-0.2032 -1.4224,0 -2.12231,0.47413 -0.69992,0.45156 -0.69992,1.17405 0,0.6096 0.4064,0.94827 0.42898,0.31609 1.08374,0.49671 0.67733,0.18062 1.49013,0.31609 0.8128,0.11289 1.6256,0.31609 0.81281,0.18062 1.46756,0.51929 0.67734,0.33866 1.08374,0.94826 0.42897,0.60961 0.42897,1.62561 0,1.08373 -0.63217,1.87395 -0.63218,0.79023 -1.78365,1.24178 -1.15147,0.42898 -2.75449,0.42898 z"
               id="path2103"
               style="fill:#ffffff;fill-opacity:1" />
          </g>
        </g>
      </g>
    </g>
  </g>
</svg>
